<?xml version="1.0" encoding="UTF-8"?>
<svg width="1600" height="900" viewBox="0 0 1600 900" xmlns="http://www.w3.org/2000/svg">
  <defs>
    <linearGradient id="bg" x1="0" y1="0" x2="1" y2="1">
      <stop offset="0" stop-color="#0B1220"/>
      <stop offset="1" stop-color="#111B2E"/>
    </linearGradient>
    <linearGradient id="glow" x1="0" y1="0" x2="1" y2="0">
      <stop offset="0" stop-color="#4EA3FF" stop-opacity="0.0"/>
      <stop offset="0.5" stop-color="#4EA3FF" stop-opacity="0.35"/>
      <stop offset="1" stop-color="#4EA3FF" stop-opacity="0.0"/>
    </linearGradient>
    <filter id="soft" x="-20%" y="-20%" width="140%" height="140%">
      <feGaussianBlur stdDeviation="10"/>
    </filter>
  </defs>

  <rect width="1600" height="900" fill="url(#bg)"/>

  <g opacity="0.12" stroke="#7AA6FF">
    <path d="M0 140H1600M0 280H1600M0 420H1600M0 560H1600M0 700H1600M0 840H1600"/>
    <path d="M160 0V900M320 0V900M480 0V900M640 0V900M800 0V900M960 0V900M1120 0V900M1280 0V900M1440 0V900"/>
  </g>

  <rect x="0" y="210" width="1600" height="34" fill="url(#glow)" filter="url(#soft)"/>
  <rect x="0" y="620" width="1600" height="34" fill="url(#glow)" filter="url(#soft)"/>

  <g transform="translate(960 160)">
    <rect x="0" y="0" width="520" height="600" rx="26" fill="#0E1728" stroke="#21314F" stroke-width="2"/>
    <rect x="26" y="26" width="468" height="548" rx="18" fill="#0A1020" stroke="#1B2945"/>

    <g transform="translate(52 70)">
      <g fill="#0F1A33" stroke="#23365A">
        <rect x="0" y="0" width="416" height="56" rx="10"/>
        <rect x="0" y="74" width="416" height="56" rx="10"/>
        <rect x="0" y="148" width="416" height="56" rx="10"/>
        <rect x="0" y="222" width="416" height="56" rx="10"/>
        <rect x="0" y="296" width="416" height="56" rx="10"/>
        <rect x="0" y="370" width="416" height="56" rx="10"/>
        <rect x="0" y="444" width="416" height="56" rx="10"/>
        <rect x="0" y="518" width="416" height="56" rx="10"/>
      </g>

      <g fill="#4EA3FF" opacity="0.9">
        <circle cx="26" cy="18" r="5"/>
        <circle cx="44" cy="18" r="5"/>
        <circle cx="62" cy="18" r="5"/>
        <circle cx="80" cy="18" r="5"/>
        <circle cx="26" cy="92" r="5"/>
        <circle cx="44" cy="92" r="5"/>
        <circle cx="62" cy="92" r="5"/>
        <circle cx="80" cy="92" r="5"/>
        <circle cx="26" cy="166" r="5"/>
        <circle cx="44" cy="166" r="5"/>
        <circle cx="62" cy="166" r="5"/>
        <circle cx="80" cy="166" r="5"/>
        <circle cx="26" cy="240" r="5"/>
        <circle cx="44" cy="240" r="5"/>
        <circle cx="62" cy="240" r="5"/>
        <circle cx="80" cy="240" r="5"/>
        <circle cx="26" cy="314" r="5"/>
        <circle cx="44" cy="314" r="5"/>
        <circle cx="62" cy="314" r="5"/>
        <circle cx="80" cy="314" r="5"/>
        <circle cx="26" cy="388" r="5"/>
        <circle cx="44" cy="388" r="5"/>
        <circle cx="62" cy="388" r="5"/>
        <circle cx="80" cy="388" r="5"/>
        <circle cx="26" cy="462" r="5"/>
        <circle cx="44" cy="462" r="5"/>
        <circle cx="62" cy="462" r="5"/>
        <circle cx="80" cy="462" r="5"/>
        <circle cx="26" cy="536" r="5"/>
        <circle cx="44" cy="536" r="5"/>
        <circle cx="62" cy="536" r="5"/>
        <circle cx="80" cy="536" r="5"/>
      </g>

      <g fill="#A7B6D6" opacity="0.7">
        <rect x="332" y="12" width="70" height="12" rx="6"/>
        <rect x="332" y="86" width="70" height="12" rx="6"/>
        <rect x="332" y="160" width="70" height="12" rx="6"/>
        <rect x="332" y="234" width="70" height="12" rx="6"/>
        <rect x="332" y="308" width="70" height="12" rx="6"/>
        <rect x="332" y="382" width="70" height="12" rx="6"/>
        <rect x="332" y="456" width="70" height="12" rx="6"/>
        <rect x="332" y="530" width="70" height="12" rx="6"/>
      </g>
    </g>

    <g transform="translate(52 34)">
      <text x="0" y="22" font-family="Avenir, system-ui, -apple-system, Segoe UI, Roboto, Arial" font-size="18" fill="#D7E0F5" opacity="0.9">GPU Cluster</text>
      <text x="0" y="44" font-family="Avenir, system-ui, -apple-system, Segoe UI, Roboto, Arial" font-size="12" fill="#9FB0D8" opacity="0.85">Secure AI Compute for Finance</text>
    </g>
  </g>
</svg>
